/* XPM */
static char * haskell_40_xpm[] = {
"40 40 3 1",
" 	c None",
".	c #D8DEE9",
"+	c #ECEFF4",
"                                        ",
"                                        ",
"                                        ",
"                                        ",
"                                        ",
"                                        ",
"........ ++++++++                       ",
"........ +++++++++                      ",
" ........ +++++++++                     ",
" ......... ++++++++                     ",
"  ........ +++++++++                    ",
"   ........ +++++++++                   ",
"   ......... ++++++++                   ",
"    ........ +++++++++                  ",
"     ........ +++++++++ ................",
"     ......... ++++++++ ................",
"      .........+++++++++ ...............",
"       ........ +++++++++ ..............",
"       ......... ++++++++ ..............",
"        .........+++++++++ .............",
"         ........ +++++++++             ",
"        ......... +++++++++  ...........",
"       ......... +++++++++++ ...........",
"       ........ +++++++++++++ ..........",
"      ......... +++++++++++++ ..........",
"     ......... +++++++++++++++ .........",
"     ........ +++++++++++++++++ ........",
"    .........+++++++++ ++++++++         ",
"   ......... ++++++++   ++++++++        ",
"   ........ +++++++++   +++++++++       ",
"  .........+++++++++     ++++++++       ",
" ......... ++++++++       ++++++++      ",
" ........ +++++++++       +++++++++     ",
"........ +++++++++         ++++++++     ",
"........ ++++++++           ++++++++    ",
"                                        ",
"                                        ",
"                                        ",
"                                        ",
"                                        "};
